<svg width="20" height="20" fill="none" xmlns="http://www.w3.org/2000/svg"><path d="M19.178 4.172H3.541l-.233-2.59A.821.821 0 002.49.836H.821a.821.821 0 100 1.642h.918l.945 10.525c.067.759.477 1.582 1.183 2.141-1.273 1.626-.11 4.022 1.96 4.022 1.72 0 2.932-1.714 2.342-3.337h4.496c-.589 1.621.62 3.337 2.341 3.337a2.493 2.493 0 002.49-2.49 2.493 2.493 0 00-2.49-2.49H5.833a1.525 1.525 0 01-1.402-.925l13.127-.771a.821.821 0 00.748-.621l1.67-6.675a.822.822 0 00-.798-1.02zm-13.35 13.35a.848.848 0 010-1.694.848.848 0 010 1.695zm9.178 0a.848.848 0 010-1.694.848.848 0 010 1.695zm1.853-6.638l-12.65.744-.52-5.813h14.437l-1.267 5.07z" fill="#000"/></svg>