<svg width="116" height="116" fill="none" xmlns="http://www.w3.org/2000/svg"><g clip-path="url(#clip0)" fill="#F6F4EF"><path d="M31.417 91.833H21.75a2.417 2.417 0 010-4.833h9.667a2.418 2.418 0 010 4.833zm78.541 0h-6.041a2.418 2.418 0 010-4.833h4.035l3.258-17.361c-.043-8.884-7.632-16.472-16.96-16.472H78.382L70.692 87h13.891a2.418 2.418 0 010 4.833H67.667a2.418 2.418 0 01-2.359-2.948l8.787-38.667a2.414 2.414 0 012.359-1.885H94.25c11.991 0 21.75 9.759 21.75 21.75l-3.669 19.778a2.41 2.41 0 01-2.373 1.972z"/><path d="M94.25 101.5c-6.66 0-12.084-5.418-12.084-12.083S87.59 77.333 94.25 77.333c6.66 0 12.083 5.419 12.083 12.084S100.91 101.5 94.25 101.5zm0-19.333c-3.997 0-7.25 3.253-7.25 7.25s3.253 7.25 7.25 7.25 7.25-3.253 7.25-7.25-3.253-7.25-7.25-7.25zM41.083 101.5C34.423 101.5 29 96.082 29 89.417s5.423-12.084 12.083-12.084 12.084 5.419 12.084 12.084S47.744 101.5 41.083 101.5zm0-19.333c-3.997 0-7.25 3.253-7.25 7.25s3.253 7.25 7.25 7.25c3.998 0 7.25-3.253 7.25-7.25s-3.252-7.25-7.25-7.25zm-9.666-33.834H12.083a2.417 2.417 0 010-4.833h19.334a2.418 2.418 0 010 4.833zm0 14.5H7.25a2.417 2.417 0 010-4.833h24.167a2.418 2.418 0 010 4.833zm0 14.5h-29a2.417 2.417 0 010-4.833h29a2.418 2.418 0 010 4.833z"/><path d="M67.667 91.833H50.75a2.418 2.418 0 010-4.833h14.988L76.72 38.667H21.75a2.418 2.418 0 010-4.834h58a2.418 2.418 0 012.36 2.949L70.025 89.948a2.419 2.419 0 01-2.358 1.885z"/></g><defs><clipPath id="clip0"><path fill="#fff" d="M0 0h116v116H0z"/></clipPath></defs></svg>