<svg width="40" height="41" fill="none" xmlns="http://www.w3.org/2000/svg"><path d="M36.667.531H3.333A3.337 3.337 0 000 3.865V24.53a3.337 3.337 0 003.333 3.334h33.334A3.337 3.337 0 0040 24.53V3.865A3.337 3.337 0 0036.667.53zm2 24a2 2 0 01-2 2H3.333a2 2 0 01-2-2V3.865a2 2 0 012-2h33.334a2 2 0 012 2V24.53z" fill="#000"/><path d="M22.521 11.865h4.812V6.53A3.337 3.337 0 0024 3.198h-8.667A3.337 3.337 0 0012 6.53v3.334h-1.333a3.337 3.337 0 00-3.334 3.333v3.333H6a3.337 3.337 0 00-3.333 3.334v5.333H18v-5.333a3.306 3.306 0 00-.235-1.21l.09-.124h4.812v-5.333a3.304 3.304 0 00-.236-1.21l.09-.123zm3.48-1.334h-2.692L26 6.831v3.7zm-4.643-6l-3.88 5.334h-3.017l3.878-5.334h3.02zm-8.025 2a2 2 0 012-2h1.358l-3.358 4.617V6.53zm.34 4.667h3.018l-3.879 5.333H9.794l3.879-5.333zm-5.006 2a2 2 0 012-2h1.358l-3.358 4.617v-2.617zM4 19.865a2 2 0 012-2h1.358L4 22.48v-2.616zm.642 4l4.364-6h3.019l-4.364 6H4.642zm4.667 0l4.364-6h.994c.583.002 1.135.26 1.511.705l-3.85 5.295h-3.02zm7.358 0h-2.692l2.692-3.7v3.7zm.327-6.667h-.327v.017a3.298 3.298 0 00-2-.684h-.206l3.878-5.333h.994c.583.002 1.136.26 1.512.705l-3.85 5.295zm4.34 0h-2.692l2.691-3.7v3.7zm-2-7.333h-.207l3.88-5.334H24c.583.002 1.136.26 1.512.706h-.003l-3.976 5.474a3.306 3.306 0 00-2.2-.846zM31 22.531a3.716 3.716 0 003.667-3.666A3.628 3.628 0 0031 15.198a3.667 3.667 0 100 7.333zm0-6a2.308 2.308 0 012.333 2.334A2.365 2.365 0 0131 21.198a2.333 2.333 0 110-4.667z" fill="#000"/><path d="M24.667 18.531v.667a6.007 6.007 0 006 6h.666a6.007 6.007 0 006-6v-6.684h-6.67a6.04 6.04 0 00-5.996 6.017zM36 13.847v5.35a4.673 4.673 0 01-4.667 4.668h-.666A4.673 4.673 0 0126 19.198v-.667a4.701 4.701 0 014.667-4.684H36zM4.485 8.458l.2.133c.672.45 1.548.45 2.219 0l.2-.133a2 2 0 00.605-2.693.622.622 0 00-.066-.09L6.305 4.099a.667.667 0 00-1.014 0L3.944 5.675a.682.682 0 00-.067.09 2 2 0 00.608 2.693zM5 6.49l.8-.934.8.934a.667.667 0 01-.225.858l-.2.134a.667.667 0 01-.74 0l-.2-.134A.667.667 0 015 6.491zm31.244.825a3.28 3.28 0 00-.95-.587.658.658 0 00.04-.197 3.333 3.333 0 00-3.653-3.32 2.985 2.985 0 00-1.79.857c-1.432 1.4-1.327 2.553-1.076 3.4.082.284.343.48.639.48h1.888a2.9 2.9 0 00-.527 2.772.667.667 0 00.639.478h5.092a.667.667 0 00.64-.477c.094-.305.144-.621.147-.94 0-.939-.395-1.834-1.09-2.466zM30 6.612a2.06 2.06 0 01.823-1.591 1.64 1.64 0 01.982-.48 1.979 1.979 0 011.54.51c.398.365.631.875.648 1.414-.104 0-.207-.014-.312-.006-.221.025-.44.076-.648.153H30zm6 3.253h-4c.017-.629.32-1.216.821-1.594a1.65 1.65 0 01.983-.48A2.003 2.003 0 0136 9.78v.084zm3.365 23.019l-.284-2.651a.667.667 0 00-.733-.592L9.333 32.738v-2.207a.667.667 0 00-.666-.666h-4A.667.667 0 004 30.53v2.306l-2.348-.25a.661.661 0 00-.733.592l-.067.607a.595.595 0 00-.075.062.667.667 0 00-.144.49l.284 2.651a.667.667 0 00.735.592L4 37.33v2.534c0 .368.299.666.667.666h4a.667.667 0 00.666-.666v-2.436l29.015 3.098a.667.667 0 00.733-.592l.284-2.651a.667.667 0 00-.592-.733l-13.734-1.467 13.734-1.467a.667.667 0 00.592-.733zM5.333 31.198H8v1.683l-1.863.2c-.024-.005-.042-.018-.067-.021l-.737-.08v-1.782zm2.667 8H5.333v-2.01L8 36.903v2.295zm29.969-1.393l-.142 1.326-25.346-2.706 6.28-.671 19.208 2.05zM18.76 34.413h-.024a.652.652 0 00-.288.036L2.173 36.184l-.142-1.326 35.796-3.821.142 1.326-19.208 2.05z" fill="#000"/></svg>