<svg width="30" height="30" fill="none" xmlns="http://www.w3.org/2000/svg"><g clip-path="url(#clip0)" fill="#fff"><path d="M15.005 7.298a7.697 7.697 0 00-7.698 7.697 7.697 7.697 0 007.698 7.697 7.697 7.697 0 007.697-7.697 7.697 7.697 0 00-7.697-7.697zm0 12.693a4.995 4.995 0 01-4.996-4.996 4.995 4.995 0 014.996-4.996 4.995 4.995 0 014.996 4.996 4.994 4.994 0 01-4.996 4.996z"/><path d="M21.185.095c-2.76-.129-9.596-.122-12.359 0C6.4.21 4.257.795 2.531 2.521-.354 5.406.015 9.294.015 14.995c0 5.835-.325 9.633 2.516 12.474 2.896 2.895 6.84 2.516 12.474 2.516 5.78 0 7.775.004 9.819-.787 2.778-1.079 4.876-3.563 5.08-8.024.13-2.761.123-9.596 0-12.359-.247-5.266-3.073-8.46-8.72-8.72zm4.369 25.465c-1.892 1.892-4.515 1.723-10.585 1.723-6.25 0-8.757.092-10.585-1.742-2.107-2.096-1.725-5.462-1.725-10.566 0-6.906-.71-11.88 6.222-12.235 1.593-.056 2.061-.075 6.07-.075l.056.038c6.662 0 11.888-.698 12.202 6.232.07 1.582.087 2.056.087 6.059-.001 6.178.116 8.699-1.742 10.566z"/><path d="M23.008 8.793a1.799 1.799 0 100-3.598 1.799 1.799 0 000 3.598z"/></g><defs><clipPath id="clip0"><path fill="#fff" d="M0 0h30v30H0z"/></clipPath></defs></svg>